<svg width="26" height="26" viewBox="0 0 26 26" fill="none" xmlns="http://www.w3.org/2000/svg">
<path d="M21.3045 0.376953H4.26071C3.70119 0.376953 3.14714 0.487013 2.63021 0.700848C2.11328 0.914684 1.64358 1.22811 1.24793 1.62322C0.448895 2.4212 9.78806e-08 3.50348 9.78806e-08 4.63199V21.653C-0.00011985 22.2119 0.110005 22.7652 0.324083 23.2815C0.538161 23.7978 0.851999 24.2669 1.24767 24.6621C1.64333 25.0572 2.11308 25.3706 2.63007 25.5844C3.14705 25.7982 3.70115 25.9082 4.26071 25.9081H21.3045C21.864 25.9082 22.4181 25.7982 22.9351 25.5844C23.4521 25.3706 23.9219 25.0572 24.3175 24.6621C24.7132 24.2669 25.027 23.7978 25.2411 23.2815C25.4552 22.7652 25.5653 22.2119 25.5652 21.653V4.63199C25.5652 3.50348 25.1163 2.4212 24.3173 1.62322C23.5182 0.82525 22.4345 0.376953 21.3045 0.376953V0.376953ZM23.4351 21.653C23.4352 21.9324 23.3802 22.2091 23.2732 22.4673C23.1661 22.7254 23.0092 22.96 22.8114 23.1575C22.6136 23.3551 22.3787 23.5118 22.1202 23.6186C21.8617 23.7255 21.5847 23.7805 21.3049 23.7803H4.26071C3.98095 23.7805 3.7039 23.7255 3.44541 23.6186C3.18691 23.5118 2.95204 23.3551 2.75422 23.1575C2.55639 22.96 2.39949 22.7254 2.29249 22.4673C2.18548 22.2091 2.13046 21.9324 2.13058 21.653V4.63199C2.13046 4.3526 2.18548 4.07592 2.29249 3.81777C2.39949 3.55962 2.55639 3.32506 2.75422 3.1275C2.95204 2.92994 3.18691 2.77325 3.44541 2.66638C3.7039 2.55952 3.98095 2.50458 4.26071 2.5047H21.3045C21.5842 2.50458 21.8613 2.55952 22.1198 2.66638C22.3783 2.77325 22.6131 2.92994 22.811 3.1275C23.0088 3.32506 23.1657 3.55962 23.2727 3.81777C23.3797 4.07592 23.4347 4.3526 23.4346 4.63199L23.4351 21.653Z" fill="#05F2F2"/>
<path d="M12.7826 6.75977C11.304 6.75987 9.87107 7.27199 8.72811 8.20887C7.58515 9.14575 6.80283 10.4494 6.51446 11.8977C6.22608 13.3461 6.44949 14.8495 7.14661 16.1517C7.84373 17.454 8.97144 18.4746 10.3376 19.0396C11.7037 19.6046 13.2238 19.6791 14.6388 19.2504C16.0537 18.8216 17.2761 17.9162 18.0975 16.6883C18.9189 15.4605 19.2886 13.9862 19.1436 12.5166C18.9986 11.047 18.3478 9.67313 17.3022 8.62901C16.7087 8.03633 16.0041 7.5662 15.2286 7.24548C14.4531 6.92475 13.622 6.75971 12.7826 6.75977ZM12.7826 17.3976C11.7969 17.3975 10.8417 17.056 10.0798 16.4314C9.31785 15.8068 8.79637 14.9377 8.60417 13.9722C8.41197 13.0067 8.56095 12.0045 9.02572 11.1363C9.49049 10.2682 10.2423 9.58786 11.153 9.21124C12.0638 8.83461 13.0771 8.785 14.0204 9.07086C14.9636 9.35671 15.7785 9.96035 16.326 10.7789C16.8736 11.5975 17.12 12.5803 17.0233 13.56C16.9266 14.5397 16.4928 15.4555 15.7957 16.1516C15.4 16.5467 14.9302 16.8601 14.4132 17.0739C13.8963 17.2877 13.3422 17.3977 12.7826 17.3976Z" fill="#05F2F2"/>
<path d="M21.3046 6.22724C21.3046 6.54278 21.2109 6.85124 21.0353 7.1136C20.8597 7.37596 20.6102 7.58045 20.3182 7.7012C20.0262 7.82195 19.705 7.85355 19.395 7.79199C19.0851 7.73043 18.8003 7.57848 18.5769 7.35536C18.3534 7.13224 18.2012 6.84797 18.1396 6.53849C18.0779 6.22901 18.1096 5.90823 18.2305 5.61671C18.3515 5.32518 18.5563 5.07601 18.819 4.90071C19.0818 4.7254 19.3907 4.63184 19.7067 4.63184C20.1305 4.63184 20.5369 4.79992 20.8366 5.09912C21.1362 5.39831 21.3046 5.80411 21.3046 6.22724Z" fill="#05F2F2"/>
</svg>
