<svg width="26" height="26" viewBox="0 0 26 26" fill="none" xmlns="http://www.w3.org/2000/svg">
<path d="M14.1623 11.0321C14.7153 10.2186 15.4522 9.5464 16.3134 9.0699C17.3173 8.51515 18.4696 8.28713 19.6094 8.41768C20.302 8.46752 20.9896 8.57146 21.666 8.72853C23.5975 9.26973 24.6952 10.6463 25.126 12.5309C25.3732 13.5851 25.5092 14.6623 25.5318 15.7448C25.5818 18.9782 25.5318 22.2143 25.5568 25.4588C25.5568 25.8085 25.4428 25.889 25.1204 25.8862C23.6216 25.8714 22.1236 25.8714 20.6266 25.8862C20.2903 25.8862 20.1875 25.7835 20.1875 25.4477C20.1875 22.6556 20.2069 19.8635 20.1875 17.0714C20.1874 16.3653 20.1129 15.661 19.9652 14.9704C19.6872 13.7409 18.8924 13.147 17.6251 13.1331C17.2386 13.118 16.8518 13.1534 16.4746 13.2386C15.2434 13.5439 14.7154 14.4709 14.5097 15.6171C14.4149 16.1727 14.3684 16.7354 14.3708 17.299C14.3569 20.0134 14.3708 22.7277 14.3708 25.4421C14.3708 25.8779 14.3708 25.8806 13.9233 25.8806C12.4254 25.8806 10.9274 25.8806 9.42949 25.8806C9.09877 25.8806 8.99316 25.789 8.99316 25.4477C9.00428 20.0522 9.00428 14.6568 8.99316 9.26141C8.99316 8.82566 8.99317 8.82566 9.43505 8.82566C10.8774 8.82566 12.3198 8.82566 13.7621 8.82566C14.0679 8.82566 14.1735 8.90893 14.1623 9.217C14.1484 9.81371 14.1623 10.4243 14.1623 11.0321Z" fill="#05F2F2"/>
<path d="M0.400146 17.3349C0.400146 14.6344 0.400146 11.9312 0.400146 9.22789C0.400146 8.91704 0.472399 8.8088 0.803116 8.81158C2.33442 8.82823 3.86016 8.82545 5.39702 8.81158C5.67493 8.81158 5.78333 8.88096 5.78333 9.18071C5.78333 14.6205 5.78333 20.0595 5.78333 25.4974C5.78333 25.775 5.70551 25.8721 5.4276 25.8694C3.87499 25.8694 2.32146 25.8694 0.766994 25.8694C0.461289 25.8694 0.402923 25.7472 0.405702 25.4697C0.405702 22.7636 0.400146 20.0493 0.400146 17.3349Z" fill="#05F2F2"/>
<path d="M3.08188 6.54395C2.47015 6.54282 1.87255 6.36024 1.36489 6.01939C0.857233 5.67853 0.4624 5.19476 0.230487 4.62945C-0.00142604 4.06414 -0.0599639 3.44277 0.062297 2.84418C0.184558 2.24559 0.482109 1.69676 0.917197 1.26732C1.35229 0.837882 1.9053 0.547194 2.50608 0.432136C3.10686 0.317078 3.72831 0.382835 4.29161 0.621066C4.85491 0.859298 5.33466 1.25927 5.66998 1.77022C6.00529 2.28118 6.18108 2.88009 6.17502 3.49098C6.17505 3.89495 6.0948 4.29492 5.93891 4.66769C5.78303 5.04047 5.55462 5.37864 5.26691 5.66261C4.9792 5.94658 4.63792 6.17071 4.26284 6.32199C3.88777 6.47328 3.48636 6.54872 3.08188 6.54395Z" fill="#05F2F2"/>
</svg>
