<svg width="14" height="26" viewBox="0 0 14 26" fill="none" xmlns="http://www.w3.org/2000/svg">
<path d="M13.0897 0.381949L9.8271 0.376953C6.16159 0.376953 3.79326 2.85008 3.79326 6.67219V9.57499H0.511009C0.226023 9.57499 0 9.80981 0 10.0946V14.3014C0 14.5912 0.230937 14.821 0.511009 14.821H3.79326V25.433C3.79326 25.7228 4.0242 25.9526 4.30427 25.9526H8.58397C8.86896 25.9526 9.09498 25.7178 9.09498 25.433V14.826H12.9325C13.2175 14.826 13.4435 14.5912 13.4435 14.3064V10.0996C13.4435 9.9597 13.3894 9.8298 13.2912 9.72987C13.1929 9.62995 13.0651 9.57499 12.9276 9.57499H9.09007V7.11685C9.09007 5.93275 9.36523 5.3332 10.8835 5.3332H13.0799C13.3649 5.3332 13.5909 5.09838 13.5909 4.8136V0.901556C13.6007 0.616772 13.3698 0.381949 13.0897 0.381949Z" fill="#05F2F2"/>
</svg>
