<svg width="27" height="23" viewBox="0 0 27 23" fill="none" xmlns="http://www.w3.org/2000/svg">
<path d="M26.7881 3.54493C25.8047 3.99069 24.7428 4.28787 23.6338 4.42054C24.7689 3.73066 25.6373 2.63748 26.0505 1.33733C24.9886 1.97414 23.8116 2.44113 22.5614 2.69054C21.5571 1.60797 20.1342 0.928711 18.5492 0.928711C15.5152 0.928711 13.0566 3.42287 13.0566 6.50077C13.0566 6.93592 13.1037 7.36577 13.1979 7.76908C8.63119 7.53558 4.58238 5.31737 1.87271 1.9476C1.39668 2.77014 1.1299 3.72536 1.1299 4.74955C1.1299 6.6812 2.10287 8.38997 3.57279 9.38763C2.67305 9.35579 1.82563 9.10637 1.08282 8.68714V8.75613C1.08282 11.4573 2.97645 13.7073 5.48735 14.2221C5.02702 14.3494 4.54053 14.4184 4.03835 14.4184C3.68264 14.4184 3.34263 14.3813 3.00261 14.3123C3.70357 16.5305 5.7332 18.1384 8.13425 18.1809C6.25631 19.6774 3.88665 20.5636 1.31299 20.5636C0.86835 20.5636 0.434175 20.5371 0 20.4893C2.43243 22.076 5.31995 22.9994 8.42195 22.9994C18.5283 22.9994 24.0523 14.5086 24.0523 7.14289L24.0313 6.42117C25.1194 5.64108 26.0557 4.65934 26.7881 3.54493Z" fill="#05F2F2"/>
</svg>
